<?xml version="1.0" standalone="no"?>
<!DOCTYPE svg PUBLIC "-//W3C//DTD SVG 20010904//EN"
 "http://www.w3.org/TR/2001/REC-SVG-20010904/DTD/svg10.dtd">
<svg version="1.0" xmlns="http://www.w3.org/2000/svg"
 width="512.000000pt" height="512.000000pt" viewBox="0 0 512.000000 512.000000"
 preserveAspectRatio="xMidYMid meet">

<g transform="translate(0.000000,512.000000) scale(0.100000,-0.100000)"
fill="#000000" stroke="none">
<path d="M4490 4775 c-184 -184 -338 -335 -341 -335 -4 0 -42 28 -85 61 -1084
841 -2647 654 -3502 -419 -280 -351 -449 -741 -524 -1204 -30 -191 -30 -525 0
-723 85 -547 329 -1030 714 -1415 840 -840 2161 -976 3149 -325 1017 671 1407
1957 936 3085 -73 174 -193 381 -312 535 -34 44 -65 86 -69 94 -6 9 88 110
330 352 l339 339 -145 145 c-80 80 -147 145 -150 145 -3 0 -156 -151 -340
-335z m-1675 -180 c338 -45 686 -187 963 -393 39 -30 72 -57 72 -61 0 -3 -101
-107 -224 -230 l-224 -224 -53 38 c-135 97 -343 185 -531 225 -296 63 -665 17
-931 -116 -717 -360 -1020 -1195 -694 -1919 338 -752 1245 -1077 1981 -708
427 214 715 606 797 1083 22 123 17 386 -9 506 -42 196 -108 359 -207 510
l-57 87 224 224 c122 122 225 223 228 223 8 0 118 -150 164 -223 79 -126 174
-336 219 -487 64 -215 88 -386 88 -619 0 -317 -59 -585 -189 -866 -112 -242
-237 -421 -427 -610 -330 -331 -742 -536 -1203 -599 -146 -21 -408 -21 -554 0
-462 63 -874 268 -1203 598 -190 190 -319 375 -428 612 -132 288 -188 547
-188 869 -1 403 97 753 305 1094 389 638 1108 1031 1841 1005 72 -3 180 -11
240 -19z m-79 -1049 c39 -8 108 -29 153 -45 84 -31 211 -96 211 -109 0 -4
-196 -203 -435 -442 l-435 -435 142 -142 c79 -79 147 -143 153 -143 5 0 205
195 443 433 494 493 433 455 502 312 284 -587 -30 -1282 -665 -1472 -84 -25
-103 -27 -280 -27 -178 0 -196 2 -280 27 -302 92 -525 279 -660 552 -91 185
-125 368 -104 565 25 248 125 457 303 636 172 171 373 271 611 303 90 13 250
6 341 -13z"/>
</g>
</svg>
